<svg width="24" height="23" viewBox="0 0 24 23" fill="none" xmlns="http://www.w3.org/2000/svg">
<path d="M0.35 22.545L0.735 21.95H1.12C1.65667 21.9733 2.135 21.9967 2.555 22.02C2.975 22.02 3.33667 22.02 3.64 22.02C4.48 22.02 5.08667 21.9383 5.46 21.775C5.85667 21.5883 6.16 21.215 6.37 20.655C6.60333 20.0717 6.895 19.1967 7.245 18.03C7.57167 17.0033 7.86333 15.9533 8.12 14.88C8.37667 13.8067 8.61 12.7683 8.82 11.765C8.65667 11.7883 8.47 11.8 8.26 11.8C8.05 11.8 7.875 11.8117 7.735 11.835H7.35C7.07 11.835 6.93 11.8 6.93 11.73C6.93 11.6133 7.08167 11.485 7.385 11.345C7.71167 11.1817 7.96833 11.0767 8.155 11.03C8.24833 10.9833 8.365 10.96 8.505 10.96C8.66833 10.96 8.83167 10.9483 8.995 10.925C9.25167 9.64167 9.46167 8.48667 9.625 7.46C9.78833 6.43333 9.89333 5.65167 9.94 5.115C9.96333 4.905 9.98667 4.66 10.01 4.38C10.0567 4.1 10.08 3.80833 10.08 3.505C10.08 3.03833 10.01 2.61833 9.87 2.245C9.73 1.87167 9.43833 1.65 8.995 1.58C8.80833 1.53333 8.505 1.51 8.085 1.51C7.665 1.48667 7.22167 1.475 6.755 1.475C6.31167 1.45167 5.92667 1.44 5.6 1.44H4.76L5.11 0.879999L5.67 0.844999C6.83667 0.844999 7.96833 0.868332 9.065 0.914999C10.1617 0.961666 11.2117 0.985 12.215 0.985C13.965 0.985 15.575 0.973333 17.045 0.949998C18.5383 0.903332 20.1483 0.833332 21.875 0.739999C22.4817 0.693333 22.9017 0.775 23.135 0.985C23.3917 1.17167 23.52 1.49833 23.52 1.965C23.52 2.245 23.485 2.58333 23.415 2.98C23.275 3.72667 23.1817 4.36833 23.135 4.905C23.0883 5.44167 23.0067 6.10667 22.89 6.9C22.89 6.97 22.8667 7.12167 22.82 7.355C22.7967 7.58833 22.785 7.705 22.785 7.705L22.295 7.39C22.295 7.39 22.3067 7.29667 22.33 7.11C22.3533 6.9 22.3767 6.77167 22.4 6.725C22.4233 6.53833 22.435 6.375 22.435 6.235C22.4583 6.07167 22.47 5.90833 22.47 5.745C22.47 4.53167 22.2017 3.62167 21.665 3.015C21.1283 2.40833 20.44 2.105 19.6 2.105C18.4567 2.12833 17.4767 2.175 16.66 2.245C15.8433 2.29167 15.1667 2.47833 14.63 2.805C14.1167 3.10833 13.7433 3.65667 13.51 4.45C13.3467 4.94 13.1367 5.75667 12.88 6.9C12.6233 8.04333 12.3433 9.30333 12.04 10.68C12.7167 10.6333 13.4517 10.5983 14.245 10.575C15.0383 10.5283 15.8667 10.4817 16.73 10.435C17.2667 10.4117 17.8267 10.365 18.41 10.295C19.0167 10.2017 19.5533 10.0967 20.02 9.98C20.51 9.86333 20.8133 9.75833 20.93 9.665C21.0467 9.595 21.105 9.58333 21.105 9.63C21.1283 9.67667 21.105 9.75833 21.035 9.875C20.8717 10.225 20.5567 10.5517 20.09 10.855C19.6233 11.135 19.2383 11.3567 18.935 11.52C18.6317 11.66 18.3167 11.7533 17.99 11.8C17.6633 11.8233 17.3367 11.835 17.01 11.835C15.75 11.835 14.7117 11.8233 13.895 11.8C13.1017 11.7767 12.4133 11.7533 11.83 11.73C11.5267 13.2 11.2583 14.6467 11.025 16.07C10.815 17.4933 10.71 18.6483 10.71 19.535C10.71 19.6983 10.71 19.85 10.71 19.99C10.7333 20.13 10.7567 20.2583 10.78 20.375C10.8733 20.9583 11.0717 21.355 11.375 21.565C11.7017 21.775 11.97 21.9033 12.18 21.95C12.3667 21.9733 12.6467 21.9967 13.02 22.02C13.3933 22.0433 13.7667 22.055 14.14 22.055C14.35 22.055 14.56 22.055 14.77 22.055C14.98 22.0317 15.1667 22.02 15.33 22.02L16.03 21.985L15.68 22.545H15.19C14.4433 22.4983 13.5333 22.4633 12.46 22.44C11.41 22.4167 10.3833 22.405 9.38 22.405C8.86667 22.405 8.37667 22.405 7.91 22.405C7.46667 22.405 7.05833 22.4167 6.685 22.44C6.195 22.4633 5.40167 22.4983 4.305 22.545C3.20833 22.5683 2.11167 22.5683 1.015 22.545H0.35Z" fill="white"/>
</svg>
